<svg xmlns="http://www.w3.org/2000/svg" xmlns:xlink="http://www.w3.org/1999/xlink" width="500" zoomAndPan="magnify" viewBox="0 0 375 374.999991" height="500" preserveAspectRatio="xMidYMid meet" version="1.0"><defs><g/></defs><g fill="#cd4631" fill-opacity="1"><g transform="translate(27.459019, 211.559825)"><g><path d="M 17.515625 -31.328125 C 20.359375 -31.328125 22.832031 -30.769531 24.9375 -29.65625 C 27.050781 -28.539062 28.695312 -26.894531 29.875 -24.71875 C 31.050781 -22.550781 31.640625 -19.929688 31.640625 -16.859375 L 31.640625 0 L 24.515625 0 L 24.515625 -7.390625 L 10.421875 -7.390625 L 10.421875 0 L 3.390625 0 L 3.390625 -16.859375 C 3.390625 -19.929688 3.972656 -22.550781 5.140625 -24.71875 C 6.316406 -26.894531 7.960938 -28.539062 10.078125 -29.65625 C 12.191406 -30.769531 14.671875 -31.328125 17.515625 -31.328125 Z M 24.515625 -13.109375 L 24.515625 -17.515625 C 24.515625 -20.066406 23.878906 -21.992188 22.609375 -23.296875 C 21.347656 -24.597656 19.632812 -25.25 17.46875 -25.25 C 15.269531 -25.25 13.546875 -24.597656 12.296875 -23.296875 C 11.046875 -21.992188 10.421875 -20.066406 10.421875 -17.515625 L 10.421875 -13.109375 Z M 24.515625 -13.109375 "/></g></g></g><g fill="#cd4631" fill-opacity="1"><g transform="translate(67.624783, 211.559825)"><g><path d="M 31.203125 -30.796875 L 31.203125 0 L 24.28125 0 L 24.28125 -3.734375 C 22.175781 -0.890625 19.066406 0.53125 14.953125 0.53125 C 11.316406 0.53125 8.476562 -0.617188 6.4375 -2.921875 C 4.40625 -5.222656 3.390625 -8.503906 3.390625 -12.765625 L 3.390625 -30.796875 L 10.515625 -30.796875 L 10.515625 -12.984375 C 10.515625 -10.515625 11.09375 -8.65625 12.25 -7.40625 C 13.40625 -6.164062 14.984375 -5.546875 16.984375 -5.546875 C 19.128906 -5.546875 20.84375 -6.210938 22.125 -7.546875 C 23.414062 -8.878906 24.0625 -10.851562 24.0625 -13.46875 L 24.0625 -30.796875 Z M 31.203125 -30.796875 "/></g></g></g><g fill="#cd4631" fill-opacity="1"><g transform="translate(107.614571, 211.559825)"><g><path d="M 13.765625 0.53125 C 11.335938 0.53125 8.984375 0.203125 6.703125 -0.453125 C 4.429688 -1.117188 2.609375 -1.976562 1.234375 -3.03125 L 3.65625 -8.40625 C 4.96875 -7.4375 6.535156 -6.65625 8.359375 -6.0625 C 10.179688 -5.476562 12 -5.1875 13.8125 -5.1875 C 15.84375 -5.1875 17.335938 -5.488281 18.296875 -6.09375 C 19.265625 -6.695312 19.75 -7.492188 19.75 -8.484375 C 19.75 -9.222656 19.460938 -9.832031 18.890625 -10.3125 C 18.328125 -10.800781 17.597656 -11.191406 16.703125 -11.484375 C 15.804688 -11.773438 14.59375 -12.097656 13.0625 -12.453125 C 10.71875 -13.003906 8.796875 -13.554688 7.296875 -14.109375 C 5.804688 -14.671875 4.523438 -15.566406 3.453125 -16.796875 C 2.378906 -18.035156 1.84375 -19.679688 1.84375 -21.734375 C 1.84375 -23.523438 2.328125 -25.144531 3.296875 -26.59375 C 4.265625 -28.050781 5.722656 -29.203125 7.671875 -30.046875 C 9.628906 -30.898438 12.015625 -31.328125 14.828125 -31.328125 C 16.796875 -31.328125 18.71875 -31.09375 20.59375 -30.625 C 22.46875 -30.15625 24.109375 -29.476562 25.515625 -28.59375 L 23.3125 -23.1875 C 20.46875 -24.800781 17.625 -25.609375 14.78125 -25.609375 C 12.789062 -25.609375 11.316406 -25.285156 10.359375 -24.640625 C 9.410156 -23.992188 8.9375 -23.144531 8.9375 -22.09375 C 8.9375 -21.03125 9.484375 -20.242188 10.578125 -19.734375 C 11.679688 -19.222656 13.363281 -18.71875 15.625 -18.21875 C 17.96875 -17.65625 19.882812 -17.09375 21.375 -16.53125 C 22.875 -15.976562 24.160156 -15.097656 25.234375 -13.890625 C 26.304688 -12.691406 26.84375 -11.066406 26.84375 -9.015625 C 26.84375 -7.253906 26.347656 -5.648438 25.359375 -4.203125 C 24.378906 -2.753906 22.90625 -1.601562 20.9375 -0.75 C 18.976562 0.101562 16.585938 0.53125 13.765625 0.53125 Z M 13.765625 0.53125 "/></g></g></g><g fill="#cd4631" fill-opacity="1"><g transform="translate(140.829575, 211.559825)"><g><path d="M 26.09375 -22.171875 C 23.445312 -23.703125 20.613281 -24.6875 17.59375 -25.125 L 17.59375 0 L 10.46875 0 L 10.46875 -25.125 C 7.445312 -24.6875 4.601562 -23.703125 1.9375 -22.171875 L -0.484375 -27.5 C 1.628906 -28.757812 3.914062 -29.710938 6.375 -30.359375 C 8.84375 -31.003906 11.378906 -31.328125 13.984375 -31.328125 C 16.628906 -31.328125 19.191406 -31.003906 21.671875 -30.359375 C 24.148438 -29.710938 26.429688 -28.757812 28.515625 -27.5 Z M 26.09375 -22.171875 "/></g></g></g><g fill="#cd4631" fill-opacity="1"><g transform="translate(174.044573, 211.559825)"><g><path d="M 14.21875 -25.078125 L 14.21875 -5.71875 L 19.53125 -5.71875 L 19.53125 0 L 1.71875 0 L 1.71875 -5.71875 L 7.078125 -5.71875 L 7.078125 -25.078125 L 1.71875 -25.078125 L 1.71875 -30.796875 L 19.53125 -30.796875 L 19.53125 -25.078125 Z M 14.21875 -25.078125 "/></g></g></g><g fill="#cd4631" fill-opacity="1"><g transform="translate(200.44078, 211.559825)"><g><path d="M 19.96875 -31.328125 C 23.632812 -31.328125 26.492188 -30.175781 28.546875 -27.875 C 30.609375 -25.570312 31.640625 -22.296875 31.640625 -18.046875 L 31.640625 0 L 24.515625 0 L 24.515625 -17.8125 C 24.515625 -20.28125 23.929688 -22.132812 22.765625 -23.375 C 21.609375 -24.625 20.003906 -25.25 17.953125 -25.25 C 15.785156 -25.25 14.046875 -24.582031 12.734375 -23.25 C 11.429688 -21.914062 10.78125 -19.945312 10.78125 -17.34375 L 10.78125 0 L 3.65625 0 L 3.65625 -30.796875 L 10.5625 -30.796875 L 10.5625 -27.0625 C 11.613281 -28.46875 12.929688 -29.53125 14.515625 -30.25 C 16.097656 -30.96875 17.914062 -31.328125 19.96875 -31.328125 Z M 19.96875 -31.328125 "/></g></g></g><g fill="#cd4631" fill-opacity="1"><g transform="translate(65.039472, 255.384665)"><g><path d="M 13.765625 0.53125 C 11.335938 0.53125 8.984375 0.203125 6.703125 -0.453125 C 4.429688 -1.117188 2.609375 -1.976562 1.234375 -3.03125 L 3.65625 -8.40625 C 4.96875 -7.4375 6.535156 -6.65625 8.359375 -6.0625 C 10.179688 -5.476562 12 -5.1875 13.8125 -5.1875 C 15.84375 -5.1875 17.335938 -5.488281 18.296875 -6.09375 C 19.265625 -6.695312 19.75 -7.492188 19.75 -8.484375 C 19.75 -9.222656 19.460938 -9.832031 18.890625 -10.3125 C 18.328125 -10.800781 17.597656 -11.191406 16.703125 -11.484375 C 15.804688 -11.773438 14.59375 -12.097656 13.0625 -12.453125 C 10.71875 -13.003906 8.796875 -13.554688 7.296875 -14.109375 C 5.804688 -14.671875 4.523438 -15.566406 3.453125 -16.796875 C 2.378906 -18.035156 1.84375 -19.679688 1.84375 -21.734375 C 1.84375 -23.523438 2.328125 -25.144531 3.296875 -26.59375 C 4.265625 -28.050781 5.722656 -29.203125 7.671875 -30.046875 C 9.628906 -30.898438 12.015625 -31.328125 14.828125 -31.328125 C 16.796875 -31.328125 18.71875 -31.09375 20.59375 -30.625 C 22.46875 -30.15625 24.109375 -29.476562 25.515625 -28.59375 L 23.3125 -23.1875 C 20.46875 -24.800781 17.625 -25.609375 14.78125 -25.609375 C 12.789062 -25.609375 11.316406 -25.285156 10.359375 -24.640625 C 9.410156 -23.992188 8.9375 -23.144531 8.9375 -22.09375 C 8.9375 -21.03125 9.484375 -20.242188 10.578125 -19.734375 C 11.679688 -19.222656 13.363281 -18.71875 15.625 -18.21875 C 17.96875 -17.65625 19.882812 -17.09375 21.375 -16.53125 C 22.875 -15.976562 24.160156 -15.097656 25.234375 -13.890625 C 26.304688 -12.691406 26.84375 -11.066406 26.84375 -9.015625 C 26.84375 -7.253906 26.347656 -5.648438 25.359375 -4.203125 C 24.378906 -2.753906 22.90625 -1.601562 20.9375 -0.75 C 18.976562 0.101562 16.585938 0.53125 13.765625 0.53125 Z M 13.765625 0.53125 "/></g></g></g><g fill="#cd4631" fill-opacity="1"><g transform="translate(98.254473, 255.384665)"><g><path d="M 16.984375 -30.796875 C 19.710938 -30.796875 22.082031 -30.34375 24.09375 -29.4375 C 26.101562 -28.53125 27.648438 -27.238281 28.734375 -25.5625 C 29.816406 -23.894531 30.359375 -21.914062 30.359375 -19.625 C 30.359375 -17.363281 29.816406 -15.390625 28.734375 -13.703125 C 27.648438 -12.015625 26.101562 -10.722656 24.09375 -9.828125 C 22.082031 -8.929688 19.710938 -8.484375 16.984375 -8.484375 L 10.78125 -8.484375 L 10.78125 0 L 3.65625 0 L 3.65625 -30.796875 Z M 16.59375 -14.296875 C 18.726562 -14.296875 20.351562 -14.757812 21.46875 -15.6875 C 22.582031 -16.613281 23.140625 -17.925781 23.140625 -19.625 C 23.140625 -21.351562 22.582031 -22.675781 21.46875 -23.59375 C 20.351562 -24.519531 18.726562 -24.984375 16.59375 -24.984375 L 10.78125 -24.984375 L 10.78125 -14.296875 Z M 16.59375 -14.296875 "/></g></g></g><g fill="#cd4631" fill-opacity="1"><g transform="translate(135.604739, 255.384665)"><g><path d="M 14.21875 -25.078125 L 14.21875 -5.71875 L 19.53125 -5.71875 L 19.53125 0 L 1.71875 0 L 1.71875 -5.71875 L 7.078125 -5.71875 L 7.078125 -25.078125 L 1.71875 -25.078125 L 1.71875 -30.796875 L 19.53125 -30.796875 L 19.53125 -25.078125 Z M 14.21875 -25.078125 "/></g></g></g><g fill="#cd4631" fill-opacity="1"><g transform="translate(162.000953, 255.384665)"><g><path d="M 19.96875 -31.328125 C 23.632812 -31.328125 26.492188 -30.175781 28.546875 -27.875 C 30.609375 -25.570312 31.640625 -22.296875 31.640625 -18.046875 L 31.640625 0 L 24.515625 0 L 24.515625 -17.8125 C 24.515625 -20.28125 23.929688 -22.132812 22.765625 -23.375 C 21.609375 -24.625 20.003906 -25.25 17.953125 -25.25 C 15.785156 -25.25 14.046875 -24.582031 12.734375 -23.25 C 11.429688 -21.914062 10.78125 -19.945312 10.78125 -17.34375 L 10.78125 0 L 3.65625 0 L 3.65625 -30.796875 L 10.5625 -30.796875 L 10.5625 -27.0625 C 11.613281 -28.46875 12.929688 -29.53125 14.515625 -30.25 C 16.097656 -30.96875 17.914062 -31.328125 19.96875 -31.328125 Z M 19.96875 -31.328125 "/></g></g></g><g fill="#cd4631" fill-opacity="1"><g transform="translate(202.166714, 255.384665)"><g><path d="M 17.515625 -31.328125 C 20.359375 -31.328125 22.832031 -30.769531 24.9375 -29.65625 C 27.050781 -28.539062 28.695312 -26.894531 29.875 -24.71875 C 31.050781 -22.550781 31.640625 -19.929688 31.640625 -16.859375 L 31.640625 0 L 24.515625 0 L 24.515625 -7.390625 L 10.421875 -7.390625 L 10.421875 0 L 3.390625 0 L 3.390625 -16.859375 C 3.390625 -19.929688 3.972656 -22.550781 5.140625 -24.71875 C 6.316406 -26.894531 7.960938 -28.539062 10.078125 -29.65625 C 12.191406 -30.769531 14.671875 -31.328125 17.515625 -31.328125 Z M 24.515625 -13.109375 L 24.515625 -17.515625 C 24.515625 -20.066406 23.878906 -21.992188 22.609375 -23.296875 C 21.347656 -24.597656 19.632812 -25.25 17.46875 -25.25 C 15.269531 -25.25 13.546875 -24.597656 12.296875 -23.296875 C 11.046875 -21.992188 10.421875 -20.066406 10.421875 -17.515625 L 10.421875 -13.109375 Z M 24.515625 -13.109375 "/></g></g></g><g fill="#cd4631" fill-opacity="1"><g transform="translate(242.332476, 255.384665)"><g><path d="M 28.8125 -5.71875 L 28.8125 0 L 1.890625 0 L 1.890625 -4.140625 L 9.203125 -13.03125 L 4.3125 -13.03125 L 4.3125 -18.34375 L 13.546875 -18.34375 L 19.09375 -25.078125 L 2.203125 -25.078125 L 2.203125 -30.796875 L 28.15625 -30.796875 L 28.15625 -26.703125 L 21.203125 -18.21875 L 25.703125 -18.21875 L 25.703125 -12.9375 L 16.890625 -12.9375 L 10.953125 -5.71875 Z M 28.8125 -5.71875 "/></g></g></g><g fill="#cd4631" fill-opacity="1"><g transform="translate(277.439148, 255.384665)"><g><path d="M 28.8125 -5.71875 L 28.8125 0 L 1.890625 0 L 1.890625 -4.140625 L 9.203125 -13.03125 L 4.3125 -13.03125 L 4.3125 -18.34375 L 13.546875 -18.34375 L 19.09375 -25.078125 L 2.203125 -25.078125 L 2.203125 -30.796875 L 28.15625 -30.796875 L 28.15625 -26.703125 L 21.203125 -18.21875 L 25.703125 -18.21875 L 25.703125 -12.9375 L 16.890625 -12.9375 L 10.953125 -5.71875 Z M 28.8125 -5.71875 "/></g></g></g><g fill="#cd4631" fill-opacity="1"><g transform="translate(312.54582, 255.384665)"><g><path d="M 28.8125 -2.640625 C 27.351562 -1.640625 25.515625 -0.859375 23.296875 -0.296875 C 21.078125 0.253906 18.722656 0.53125 16.234375 0.53125 C 13.128906 0.53125 10.488281 0.144531 8.3125 -0.625 C 6.144531 -1.40625 4.503906 -2.492188 3.390625 -3.890625 C 2.273438 -5.285156 1.71875 -6.878906 1.71875 -8.671875 C 1.71875 -10.304688 2.171875 -11.753906 3.078125 -13.015625 C 3.984375 -14.285156 5.226562 -15.226562 6.8125 -15.84375 C 5.613281 -16.488281 4.679688 -17.367188 4.015625 -18.484375 C 3.359375 -19.597656 3.03125 -20.84375 3.03125 -22.21875 C 3.03125 -23.894531 3.539062 -25.421875 4.5625 -26.796875 C 5.59375 -28.171875 7.148438 -29.269531 9.234375 -30.09375 C 11.316406 -30.914062 13.867188 -31.328125 16.890625 -31.328125 C 18.890625 -31.328125 20.84375 -31.128906 22.75 -30.734375 C 24.65625 -30.335938 26.3125 -29.800781 27.71875 -29.125 L 25.734375 -23.671875 C 23.035156 -24.929688 20.175781 -25.5625 17.15625 -25.5625 C 14.875 -25.5625 13.148438 -25.21875 11.984375 -24.53125 C 10.828125 -23.84375 10.25 -22.910156 10.25 -21.734375 C 10.25 -20.648438 10.632812 -19.820312 11.40625 -19.25 C 12.1875 -18.675781 13.367188 -18.390625 14.953125 -18.390625 L 23.359375 -18.390625 L 23.359375 -12.765625 L 14.515625 -12.765625 C 12.734375 -12.765625 11.359375 -12.453125 10.390625 -11.828125 C 9.421875 -11.210938 8.9375 -10.320312 8.9375 -9.15625 C 8.9375 -7.914062 9.554688 -6.953125 10.796875 -6.265625 C 12.046875 -5.578125 13.960938 -5.234375 16.546875 -5.234375 C 18.359375 -5.234375 20.175781 -5.472656 22 -5.953125 C 23.820312 -6.441406 25.363281 -7.128906 26.625 -8.015625 Z M 28.8125 -2.640625 "/></g></g></g><g fill="#000000" fill-opacity="1"><g transform="translate(226.295469, 173.894962)"><g><path d="M 0.171875 -4.703125 C 0.148438 -3.515625 -0.265625 -2.515625 -1.078125 -1.703125 C -1.898438 -0.890625 -2.929688 -0.492188 -4.171875 -0.515625 C -5.410156 -0.546875 -6.421875 -0.984375 -7.203125 -1.828125 C -7.992188 -2.671875 -8.378906 -3.6875 -8.359375 -4.875 C -8.335938 -5.769531 -8.101562 -6.5625 -7.65625 -7.25 C -7.207031 -7.9375 -6.578125 -8.425781 -5.765625 -8.71875 L -5.8125 -7.0625 C -6.65625 -6.632812 -7.085938 -5.898438 -7.109375 -4.859375 C -7.117188 -4.023438 -6.851562 -3.332031 -6.3125 -2.78125 C -5.78125 -2.226562 -5.0625 -1.941406 -4.15625 -1.921875 C -3.25 -1.910156 -2.507812 -2.164062 -1.9375 -2.6875 C -1.375 -3.21875 -1.085938 -3.898438 -1.078125 -4.734375 C -1.054688 -5.773438 -1.457031 -6.523438 -2.28125 -6.984375 L -2.234375 -8.640625 C -1.441406 -8.316406 -0.835938 -7.800781 -0.421875 -7.09375 C -0.00390625 -6.394531 0.191406 -5.597656 0.171875 -4.703125 Z M 0.171875 -4.703125 "/></g></g></g><g fill="#000000" fill-opacity="1"><g transform="translate(227.221076, 160.71807)"><g><path d="M -2.59375 -3.15625 L 0.65625 -2.171875 L 0.265625 -0.875 L -7.71875 -3.28125 L -6.890625 -6.03125 C -6.617188 -6.9375 -6.1875 -7.566406 -5.59375 -7.921875 C -5 -8.273438 -4.359375 -8.347656 -3.671875 -8.140625 C -3.128906 -7.984375 -2.691406 -7.675781 -2.359375 -7.21875 C -2.023438 -6.757812 -1.898438 -6.171875 -1.984375 -5.453125 L 1.984375 -6.578125 L 1.5 -4.984375 L -2.359375 -3.96875 Z M -6.3125 -4.28125 L -3.609375 -3.453125 L -3.171875 -4.90625 C -3.023438 -5.40625 -3.035156 -5.8125 -3.203125 -6.125 C -3.367188 -6.4375 -3.660156 -6.65625 -4.078125 -6.78125 C -4.503906 -6.914062 -4.875 -6.898438 -5.1875 -6.734375 C -5.5 -6.566406 -5.726562 -6.234375 -5.875 -5.734375 Z M -6.3125 -4.28125 "/></g></g></g><g fill="#000000" fill-opacity="1"><g transform="translate(231.111953, 149.771555)"><g><path d="M -4.375 -9 L -3.46875 -8.46875 L -5.125 -5.671875 L -2.9375 -4.375 L -1.46875 -6.859375 L -0.5625 -6.328125 L -2.03125 -3.84375 L 0.234375 -2.5 L 1.890625 -5.296875 L 2.8125 -4.75 L 0.46875 -0.78125 L -6.71875 -5.03125 Z M -4.375 -9 "/></g></g></g><g fill="#000000" fill-opacity="1"><g transform="translate(236.680706, 141.093696)"><g><path d="M 4.609375 -4.625 L 2.984375 -5.40625 L 0.515625 -2.9375 L 1.296875 -1.3125 L 0.28125 -0.28125 L -3.515625 -8.3125 L -2.40625 -9.4375 L 5.640625 -5.65625 Z M 0.015625 -3.96875 L 1.953125 -5.90625 L -1.796875 -7.703125 Z M 0.015625 -3.96875 "/></g></g></g><g fill="#000000" fill-opacity="1"><g transform="translate(245.820979, 132.781176)"><g><path d="M -3.296875 -6.5 L -3.828125 -7.421875 L 1.1875 -10.390625 L 1.71875 -9.46875 L -0.1875 -8.34375 L 3.515625 -2.078125 L 2.328125 -1.375 L -1.375 -7.640625 Z M -3.296875 -6.5 "/></g></g></g><g fill="#000000" fill-opacity="1"><g transform="translate(255.525596, 127.754423)"><g><path d="M 0.859375 -0.296875 L -1.859375 -8.1875 L -0.578125 -8.625 L 2.140625 -0.734375 Z M 0.859375 -0.296875 "/></g></g></g><g fill="#000000" fill-opacity="1"><g transform="translate(262.487666, 125.532369)"><g><path d="M 3.359375 -0.390625 L -0.71875 -8.3125 L 0.71875 -8.46875 L 3.96875 -1.875 L 5.640625 -9.046875 L 7.09375 -9.203125 L 4.9375 -0.5625 Z M 3.359375 -0.390625 "/></g></g></g><g fill="#000000" fill-opacity="1"><g transform="translate(274.79523, 124.745608)"><g><path d="M 6.59375 -7.546875 L 6.453125 -6.5 L 3.234375 -6.9375 L 2.890625 -4.421875 L 5.75 -4.03125 L 5.609375 -2.984375 L 2.75 -3.375 L 2.390625 -0.75 L 5.609375 -0.3125 L 5.46875 0.734375 L 0.890625 0.125 L 2.015625 -8.15625 Z M 6.59375 -7.546875 "/></g></g></g><g fill="#000000" fill-opacity="1"><g transform="translate(292.293246, 129.404195)"><g><path d="M 2.46875 0.3125 L 3.625 1.03125 C 4.445312 1.539062 5.226562 1.703125 5.96875 1.515625 C 6.707031 1.328125 7.332031 0.820312 7.84375 0 C 8.351562 -0.8125 8.53125 -1.59375 8.375 -2.34375 C 8.226562 -3.09375 7.742188 -3.722656 6.921875 -4.234375 L 5.765625 -4.953125 Z M 7.5 -5.15625 C 8.632812 -4.445312 9.34375 -3.554688 9.625 -2.484375 C 9.914062 -1.421875 9.71875 -0.34375 9.03125 0.75 C 8.351562 1.84375 7.472656 2.488281 6.390625 2.6875 C 5.316406 2.882812 4.210938 2.628906 3.078125 1.921875 L 0.765625 0.484375 L 5.1875 -6.59375 Z M 7.5 -5.15625 "/></g></g></g><g fill="#000000" fill-opacity="1"><g transform="translate(302.546196, 136.564743)"><g><path d="M 9.859375 -1.78125 L 9.09375 -1.046875 L 6.84375 -3.390625 L 5.015625 -1.640625 L 7.015625 0.453125 L 6.25 1.171875 L 4.25 -0.921875 L 2.328125 0.90625 L 4.578125 3.25 L 3.8125 3.984375 L 0.625 0.65625 L 6.671875 -5.109375 Z M 9.859375 -1.78125 "/></g></g></g><g fill="#000000" fill-opacity="1"><g transform="translate(309.387402, 144.283)"><g><path d="M 1.65625 2.9375 L 7.375 -3.890625 L 8.09375 -2.625 L 3.265625 2.921875 L 10.515625 1.6875 L 11.234375 2.953125 L 2.4375 4.328125 Z M 1.65625 2.9375 "/></g></g></g><g fill="#000000" fill-opacity="1"><g transform="translate(314.882867, 155.323586)"><g><path d="M 9.515625 3.15625 L 8.484375 3.421875 L 7.640625 0.28125 L 5.1875 0.953125 L 5.9375 3.75 L 4.921875 4.015625 L 4.171875 1.21875 L 1.625 1.90625 L 2.46875 5.046875 L 1.4375 5.328125 L 0.234375 0.875 L 8.3125 -1.296875 Z M 9.515625 3.15625 "/></g></g></g><g fill="#000000" fill-opacity="1"><g transform="translate(317.10469, 165.48309)"><g><path d="M 8.375 0.53125 L 8.4375 1.890625 L 1.15625 2.21875 L 1.28125 5.046875 L 0.234375 5.09375 L 0.046875 0.90625 Z M 8.375 0.53125 "/></g></g></g><g fill="#000000" fill-opacity="1"><g transform="translate(317.282676, 174.841253)"><g><path d="M 0.15625 4.84375 C -0.0078125 5.664062 0.125 6.394531 0.5625 7.03125 C 1 7.664062 1.660156 8.070312 2.546875 8.25 C 3.441406 8.4375 4.210938 8.328125 4.859375 7.921875 C 5.503906 7.515625 5.910156 6.898438 6.078125 6.078125 C 6.253906 5.253906 6.128906 4.523438 5.703125 3.890625 C 5.273438 3.253906 4.613281 2.84375 3.71875 2.65625 C 2.832031 2.476562 2.0625 2.59375 1.40625 3 C 0.75 3.40625 0.332031 4.019531 0.15625 4.84375 Z M -1.03125 4.59375 C -0.789062 3.425781 -0.195312 2.515625 0.75 1.859375 C 1.707031 1.210938 2.789062 1.015625 4 1.265625 C 5.21875 1.523438 6.132812 2.140625 6.75 3.109375 C 7.375 4.085938 7.5625 5.160156 7.3125 6.328125 C 7.070312 7.503906 6.472656 8.410156 5.515625 9.046875 C 4.566406 9.691406 3.484375 9.882812 2.265625 9.625 C 1.054688 9.375 0.144531 8.765625 -0.46875 7.796875 C -1.09375 6.835938 -1.28125 5.769531 -1.03125 4.59375 Z M -1.03125 4.59375 "/></g></g></g><g fill="#000000" fill-opacity="1"><g transform="translate(313.902037, 187.753339)"><g><path d="M 5.703125 7.171875 C 5.265625 8.015625 4.71875 8.554688 4.0625 8.796875 C 3.414062 9.046875 2.78125 9.007812 2.15625 8.6875 C 1.539062 8.363281 1.128906 7.875 0.921875 7.21875 C 0.710938 6.570312 0.835938 5.800781 1.296875 4.90625 L 1.984375 3.5625 L -1.03125 2.015625 L -0.40625 0.8125 L 7.015625 4.625 Z M 2.9375 4.046875 L 2.25 5.390625 C 2.007812 5.859375 1.9375 6.257812 2.03125 6.59375 C 2.132812 6.9375 2.382812 7.207031 2.78125 7.40625 C 3.175781 7.613281 3.546875 7.660156 3.890625 7.546875 C 4.234375 7.441406 4.523438 7.15625 4.765625 6.6875 L 5.453125 5.34375 Z M 2.9375 4.046875 "/></g></g></g><g fill="#000000" fill-opacity="1"><g transform="translate(308.327535, 197.459387)"><g><path d="M 2.75 9.640625 L 1.9375 8.953125 L 4.046875 6.484375 L 2.125 4.828125 L 0.25 7.015625 L -0.546875 6.328125 L 1.328125 4.140625 L -0.671875 2.40625 L -2.78125 4.875 L -3.59375 4.1875 L -0.59375 0.6875 L 5.75 6.140625 Z M 2.75 9.640625 "/></g></g></g><g fill="#000000" fill-opacity="1"><g transform="translate(301.281859, 205.01849)"><g><path d="M 0.125 4.078125 L -1.84375 1.3125 L -0.734375 0.53125 L 4.109375 7.328125 L 1.765625 8.984375 C 0.992188 9.535156 0.265625 9.769531 -0.421875 9.6875 C -1.109375 9.601562 -1.660156 9.265625 -2.078125 8.671875 C -2.410156 8.210938 -2.566406 7.703125 -2.546875 7.140625 C -2.535156 6.578125 -2.28125 6.039062 -1.78125 5.53125 L -5.59375 3.984375 L -4.234375 3.015625 L -0.5625 4.5625 Z M 2.375 7.25 L 0.734375 4.9375 L -0.5 5.8125 C -0.925781 6.113281 -1.171875 6.441406 -1.234375 6.796875 C -1.296875 7.148438 -1.195312 7.503906 -0.9375 7.859375 C -0.6875 8.222656 -0.382812 8.429688 -0.03125 8.484375 C 0.320312 8.546875 0.710938 8.425781 1.140625 8.125 Z M 2.375 7.25 "/></g></g></g><g fill="#000000" fill-opacity="1"><g transform="translate(29.51171, 233.634666)"><g><path d="M 0.640625 -0.140625 L 0.640625 -1.5625 C 0.867188 -1.769531 1.234375 -2.085938 1.734375 -2.515625 C 2.234375 -2.941406 2.601562 -3.265625 2.84375 -3.484375 C 3.09375 -3.703125 3.398438 -3.992188 3.765625 -4.359375 C 4.128906 -4.722656 4.394531 -5.023438 4.5625 -5.265625 C 5.019531 -5.910156 5.25 -6.484375 5.25 -6.984375 C 5.25 -7.953125 4.796875 -8.4375 3.890625 -8.4375 C 3.453125 -8.4375 3.109375 -8.289062 2.859375 -8 C 2.609375 -7.707031 2.484375 -7.300781 2.484375 -6.78125 L 0.609375 -6.78125 C 0.617188 -7.851562 0.929688 -8.671875 1.546875 -9.234375 C 2.171875 -9.796875 2.984375 -10.078125 3.984375 -10.078125 C 4.984375 -10.078125 5.765625 -9.789062 6.328125 -9.21875 C 6.898438 -8.65625 7.1875 -7.941406 7.1875 -7.078125 C 7.1875 -6.429688 7.019531 -5.832031 6.6875 -5.28125 C 6.519531 -4.988281 6.359375 -4.726562 6.203125 -4.5 C 6.046875 -4.28125 5.820312 -4.023438 5.53125 -3.734375 C 5.25 -3.441406 5.023438 -3.210938 4.859375 -3.046875 C 4.691406 -2.878906 4.441406 -2.644531 4.109375 -2.34375 C 3.773438 -2.050781 3.539062 -1.84375 3.40625 -1.71875 L 7.421875 -1.71875 L 7.421875 -0.140625 Z M 0.640625 -0.140625 "/></g></g></g><g fill="#000000" fill-opacity="1"><g transform="translate(45.587248, 233.634666)"><g><path d="M 0.734375 -5.015625 C 0.734375 -8.335938 1.96875 -10 4.4375 -10 C 6.914062 -10 8.15625 -8.335938 8.15625 -5.015625 C 8.15625 -1.691406 6.914062 -0.03125 4.4375 -0.03125 C 1.96875 -0.03125 0.734375 -1.691406 0.734375 -5.015625 Z M 5.265625 -8.03125 C 5.035156 -8.15625 4.765625 -8.21875 4.453125 -8.21875 C 4.140625 -8.21875 3.867188 -8.15625 3.640625 -8.03125 C 3.410156 -7.914062 3.234375 -7.765625 3.109375 -7.578125 C 2.984375 -7.398438 2.882812 -7.160156 2.8125 -6.859375 C 2.738281 -6.566406 2.6875 -6.28125 2.65625 -6 C 2.632812 -5.726562 2.625 -5.398438 2.625 -5.015625 C 2.625 -4.640625 2.632812 -4.316406 2.65625 -4.046875 C 2.6875 -3.773438 2.738281 -3.488281 2.8125 -3.1875 C 2.882812 -2.882812 2.984375 -2.640625 3.109375 -2.453125 C 3.234375 -2.265625 3.410156 -2.109375 3.640625 -1.984375 C 3.867188 -1.867188 4.140625 -1.8125 4.453125 -1.8125 C 4.765625 -1.8125 5.035156 -1.867188 5.265625 -1.984375 C 5.492188 -2.109375 5.664062 -2.265625 5.78125 -2.453125 C 5.90625 -2.640625 6.003906 -2.882812 6.078125 -3.1875 C 6.148438 -3.488281 6.195312 -3.773438 6.21875 -4.046875 C 6.25 -4.316406 6.265625 -4.640625 6.265625 -5.015625 C 6.265625 -5.398438 6.25 -5.726562 6.21875 -6 C 6.195312 -6.28125 6.148438 -6.566406 6.078125 -6.859375 C 6.003906 -7.160156 5.90625 -7.398438 5.78125 -7.578125 C 5.664062 -7.765625 5.492188 -7.914062 5.265625 -8.03125 Z M 5.265625 -8.03125 "/></g></g></g><g fill="#000000" fill-opacity="1"><g transform="translate(29.51171, 252.384665)"><g><path d="M 0.640625 -0.140625 L 0.640625 -1.5625 C 0.867188 -1.769531 1.234375 -2.085938 1.734375 -2.515625 C 2.234375 -2.941406 2.601562 -3.265625 2.84375 -3.484375 C 3.09375 -3.703125 3.398438 -3.992188 3.765625 -4.359375 C 4.128906 -4.722656 4.394531 -5.023438 4.5625 -5.265625 C 5.019531 -5.910156 5.25 -6.484375 5.25 -6.984375 C 5.25 -7.953125 4.796875 -8.4375 3.890625 -8.4375 C 3.453125 -8.4375 3.109375 -8.289062 2.859375 -8 C 2.609375 -7.707031 2.484375 -7.300781 2.484375 -6.78125 L 0.609375 -6.78125 C 0.617188 -7.851562 0.929688 -8.671875 1.546875 -9.234375 C 2.171875 -9.796875 2.984375 -10.078125 3.984375 -10.078125 C 4.984375 -10.078125 5.765625 -9.789062 6.328125 -9.21875 C 6.898438 -8.65625 7.1875 -7.941406 7.1875 -7.078125 C 7.1875 -6.429688 7.019531 -5.832031 6.6875 -5.28125 C 6.519531 -4.988281 6.359375 -4.726562 6.203125 -4.5 C 6.046875 -4.28125 5.820312 -4.023438 5.53125 -3.734375 C 5.25 -3.441406 5.023438 -3.210938 4.859375 -3.046875 C 4.691406 -2.878906 4.441406 -2.644531 4.109375 -2.34375 C 3.773438 -2.050781 3.539062 -1.84375 3.40625 -1.71875 L 7.421875 -1.71875 L 7.421875 -0.140625 Z M 0.640625 -0.140625 "/></g></g></g><g fill="#000000" fill-opacity="1"><g transform="translate(45.587248, 252.384665)"><g><path d="M 0.640625 -0.140625 L 0.640625 -1.5625 C 0.867188 -1.769531 1.234375 -2.085938 1.734375 -2.515625 C 2.234375 -2.941406 2.601562 -3.265625 2.84375 -3.484375 C 3.09375 -3.703125 3.398438 -3.992188 3.765625 -4.359375 C 4.128906 -4.722656 4.394531 -5.023438 4.5625 -5.265625 C 5.019531 -5.910156 5.25 -6.484375 5.25 -6.984375 C 5.25 -7.953125 4.796875 -8.4375 3.890625 -8.4375 C 3.453125 -8.4375 3.109375 -8.289062 2.859375 -8 C 2.609375 -7.707031 2.484375 -7.300781 2.484375 -6.78125 L 0.609375 -6.78125 C 0.617188 -7.851562 0.929688 -8.671875 1.546875 -9.234375 C 2.171875 -9.796875 2.984375 -10.078125 3.984375 -10.078125 C 4.984375 -10.078125 5.765625 -9.789062 6.328125 -9.21875 C 6.898438 -8.65625 7.1875 -7.941406 7.1875 -7.078125 C 7.1875 -6.429688 7.019531 -5.832031 6.6875 -5.28125 C 6.519531 -4.988281 6.359375 -4.726562 6.203125 -4.5 C 6.046875 -4.28125 5.820312 -4.023438 5.53125 -3.734375 C 5.25 -3.441406 5.023438 -3.210938 4.859375 -3.046875 C 4.691406 -2.878906 4.441406 -2.644531 4.109375 -2.34375 C 3.773438 -2.050781 3.539062 -1.84375 3.40625 -1.71875 L 7.421875 -1.71875 L 7.421875 -0.140625 Z M 0.640625 -0.140625 "/></g></g></g></svg>