<svg width="509" height="643" viewBox="0 0 509 643" fill="none" xmlns="http://www.w3.org/2000/svg">
<path d="M88.0393 580.435C84.7009 589.936 81.9552 599.869 79.3572 609.44C79.2507 608.692 79.1374 607.941 79.0163 607.189L78.9899 607.026L78.9581 606.863C76.2062 592.776 68.3514 580.808 54.5403 572.15C53.6396 571.58 52.7273 570.999 51.8019 570.409C43.3025 564.99 33.7051 558.872 21.994 555.242C37.5675 551.291 50.117 544.697 60.249 535.909C71.7817 525.907 79.6677 513.51 85.4436 500.165C85.1232 504.645 84.8394 509.328 84.8328 513.81C84.2554 533.821 101.002 544.092 114.691 549.401L114.775 549.433L114.859 549.464C114.959 549.501 115.059 549.537 115.16 549.574C110.19 551.517 104.942 554.82 101.573 559.328C101.474 559.447 101.374 559.566 101.274 559.686C96.7699 565.077 90.8692 572.141 88.0393 580.435ZM9.36757 550.772C9.36783 550.772 9.37287 550.78 9.38189 550.796C9.3718 550.78 9.3673 550.772 9.36757 550.772ZM8.51493 557.973C8.51486 557.973 8.51855 557.97 8.52613 557.963C8.5188 557.97 8.51499 557.973 8.51493 557.973Z" stroke="black" stroke-width="20"/>
<path d="M385.467 560.538C385.314 561.081 385.161 561.622 385.008 562.162C384.721 559.822 384.388 557.458 383.99 555.087L383.956 554.883L383.915 554.68C380.358 537.21 370.238 522.525 352.662 511.953C351.504 511.251 350.333 510.535 349.147 509.81C337.864 502.91 325.239 495.19 309.77 490.803C330.258 485.995 346.689 477.799 359.914 466.794C376.18 453.258 386.831 436.108 394.452 417.682C394.427 418 394.402 418.32 394.377 418.641C393.857 425.357 393.291 432.661 393.28 439.574C392.924 451.554 398.018 461.12 405.479 468.259C412.666 475.136 422.104 479.875 431.364 483.32L431.461 483.356L431.559 483.391C431.965 483.534 432.373 483.675 432.782 483.814C426.301 486.11 419.276 490.214 414.825 495.933C414.694 496.083 414.562 496.235 414.429 496.387C408.629 503.05 401.056 511.748 397.418 521.979C392.788 534.621 389.043 547.881 385.467 560.538ZM294.198 485.31C294.198 485.31 294.204 485.319 294.215 485.338C294.203 485.319 294.197 485.31 294.198 485.31ZM293.479 493.78C293.476 493.78 293.473 493.781 293.469 493.781L293.479 493.78ZM293.202 494.097C293.202 494.097 293.204 494.095 293.208 494.091C293.204 494.095 293.201 494.097 293.202 494.097Z" stroke="#CD4631" stroke-width="24"/>
<mask id="path-3-inside-1_0_1" fill="white">
<path d="M222.698 383.833C221.669 371.068 220.641 358.303 218.583 345.538C213.44 319.21 199.039 296.872 172.294 280.118C144.52 262.566 117.775 244.217 81.7728 238.632C76.6295 237.834 70.4576 235.441 67.3717 232.249C63.2571 227.463 57.0852 221.08 58.1138 216.293C59.1425 211.506 67.3717 205.124 74.5722 204.326C169.208 190.764 213.44 139.704 239.156 74.2839C245.328 58.3278 248.414 40.7761 252.529 24.0221C255.615 18.4375 254.586 12.8529 257.672 8.06602C260.758 4.07699 266.93 -0.709845 271.044 0.0879604C275.159 0.0879604 280.302 5.67261 283.388 9.66164C285.445 12.8529 284.417 16.8419 284.417 20.8309C283.388 37.5848 282.359 53.541 281.331 70.2949C280.302 88.6444 278.245 106.994 278.245 125.343C277.216 155.66 301.904 174.01 332.763 185.977C352.307 193.157 373.909 197.146 397.568 194.753C411.969 193.157 426.37 196.348 441.8 197.944C446.943 198.742 452.086 199.539 455.172 201.933C459.287 205.922 464.43 211.507 464.43 215.496C464.43 222.676 455.172 223.474 446.943 222.676C433.571 221.878 421.227 221.08 407.854 219.485C383.167 217.091 360.537 221.878 337.906 228.26C327.62 231.452 317.333 237.834 312.19 245.014C300.875 258.577 289.56 272.14 284.417 287.298C272.073 322.402 263.844 358.303 253.557 393.406C251.5 400.586 251.5 407.767 247.385 414.149C245.328 418.138 238.128 422.925 234.013 422.925C229.898 422.925 222.698 417.34 222.698 413.351C221.669 403.778 222.698 393.406 222.698 383.833Z"/>
</mask>
<path d="M222.698 383.833H247.698V382.827L247.617 381.824L222.698 383.833ZM218.583 345.538L243.265 341.56L243.199 341.151L243.119 340.745L218.583 345.538ZM172.294 280.118L158.939 301.251L158.98 301.278L159.022 301.304L172.294 280.118ZM81.7728 238.632L77.9407 263.336L81.7728 238.632ZM67.3717 232.249L48.413 248.546L48.8907 249.101L49.4001 249.628L67.3717 232.249ZM58.1138 216.293L82.5559 221.546L82.5559 221.546L58.1138 216.293ZM74.5722 204.326L77.3253 229.174L77.7229 229.13L78.1189 229.073L74.5722 204.326ZM239.156 74.2839L262.423 83.43L262.448 83.3665L262.473 83.3028L239.156 74.2839ZM252.529 24.0221L230.647 11.9309L229.042 14.8361L228.25 18.0596L252.529 24.0221ZM257.672 8.06602L237.898 -7.23107L237.241 -6.38207L236.66 -5.47991L257.672 8.06602ZM271.044 0.0879604L266.285 24.6309L268.643 25.088H271.044V0.0879604ZM283.388 9.66164L304.4 -3.88429L303.818 -4.78645L303.162 -5.63545L283.388 9.66164ZM284.417 20.8309L309.37 22.363L309.417 21.5977V20.8309H284.417ZM281.331 70.2949L256.378 68.7628L256.374 68.8292L256.37 68.8956L281.331 70.2949ZM278.245 125.343L303.23 126.191L303.245 125.767V125.343H278.245ZM332.763 185.977L323.724 209.285L323.932 209.366L324.142 209.443L332.763 185.977ZM397.568 194.753L400.084 219.626L400.203 219.614L400.321 219.601L397.568 194.753ZM441.8 197.944L445.632 173.239L445.004 173.142L444.371 173.076L441.8 197.944ZM455.172 201.933L472.574 183.983L471.584 183.023L470.494 182.178L455.172 201.933ZM446.943 222.676L449.355 197.792L448.894 197.748L448.432 197.72L446.943 222.676ZM407.854 219.485L410.816 194.661L410.542 194.628L410.267 194.601L407.854 219.485ZM337.906 228.26L331.12 204.199L330.808 204.287L330.499 204.383L337.906 228.26ZM312.19 245.014L331.387 261.03L331.977 260.322L332.514 259.572L312.19 245.014ZM284.417 287.298L308.001 295.591L308.047 295.461L308.091 295.331L284.417 287.298ZM253.557 393.406L229.566 386.376L229.545 386.448L229.524 386.52L253.557 393.406ZM247.385 414.149L226.373 400.603L225.719 401.617L225.166 402.69L247.385 414.149ZM222.698 413.351H247.698V412.012L247.555 410.681L222.698 413.351ZM247.617 381.824C246.601 369.218 245.506 355.466 243.265 341.56L193.902 349.516C195.775 361.139 196.737 372.917 197.779 385.841L247.617 381.824ZM243.119 340.745C236.629 307.524 218.079 279.299 185.566 258.932L159.022 301.304C179.999 314.445 190.25 330.897 194.047 350.331L243.119 340.745ZM185.65 258.984C159.112 242.213 127.755 220.466 85.6049 213.927L77.9407 263.336C107.796 267.967 129.929 282.919 158.939 301.251L185.65 258.984ZM85.6049 213.927C85.4146 213.898 85.0826 213.831 84.6662 213.712C84.2525 213.594 83.8852 213.46 83.6099 213.343C83.4787 213.287 83.3975 213.247 83.3652 213.23C83.3313 213.213 83.375 213.233 83.4856 213.303C83.5935 213.371 83.8106 213.513 84.1077 213.747C84.4014 213.977 84.8345 214.345 85.3432 214.871L49.4001 249.628C54.1594 254.55 59.8176 257.553 63.9916 259.333C68.4696 261.244 73.3058 262.617 77.9407 263.336L85.6049 213.927ZM86.3304 215.953C85.7338 215.259 85.0919 214.527 84.5822 213.943C84.0337 213.315 83.5604 212.77 83.1154 212.245C82.1898 211.153 81.6678 210.474 81.3841 210.063C81.0359 209.559 81.4874 210.088 81.9937 211.456C82.4891 212.794 83.6301 216.547 82.5559 221.546L33.6718 211.041C32.0833 218.433 33.61 224.778 35.1019 228.81C36.6047 232.87 38.6635 236.191 40.244 238.48C43.1648 242.708 47.2131 247.15 48.413 248.546L86.3304 215.953ZM82.5559 221.546C82.0979 223.677 81.3912 225.241 80.8901 226.183C80.3753 227.15 79.8975 227.798 79.6176 228.147C79.0894 228.807 78.8069 228.979 78.942 228.879C79.0398 228.806 79.1351 228.76 79.1043 228.774C79.0706 228.788 78.9294 228.848 78.6707 228.922C78.4164 228.994 77.9642 229.103 77.3253 229.174L71.8191 179.478C62.6416 180.495 54.6757 184.616 49.1151 188.749C46.1643 190.943 43.1816 193.658 40.596 196.885C38.2087 199.865 35.0405 204.672 33.6718 211.041L82.5559 221.546ZM78.1189 229.073C129.459 221.716 168.841 203.871 199.089 177.638C229.158 151.56 248.609 118.571 262.423 83.43L215.889 65.1378C203.987 95.4166 188.465 120.668 166.329 139.865C144.373 158.907 114.322 173.374 71.0256 179.579L78.1189 229.073ZM262.473 83.3028C269.416 65.3521 273.247 44.4815 276.807 29.9847L228.25 18.0596C223.581 37.0706 221.24 51.3035 215.84 65.265L262.473 83.3028ZM274.41 36.1134C278.164 29.3197 279.232 22.6562 279.656 20.4354C280.263 17.2591 280.139 19.3555 278.684 21.6119L236.66 -5.47991C232.119 1.56335 230.966 8.8455 230.544 11.0543C229.94 14.2188 229.979 13.1399 230.647 11.9309L274.41 36.1134ZM277.446 23.3631C277.28 23.5768 277.287 23.5373 277.471 23.367C277.647 23.2038 277.737 23.1515 277.643 23.2131C277.622 23.227 276.91 23.7071 275.507 24.1712C274.251 24.5868 270.856 25.5171 266.285 24.6309L275.803 -24.4549C263.619 -26.8174 253.81 -20.9405 250.302 -18.6492C245.48 -15.5001 241.114 -11.3885 237.898 -7.23107L277.446 23.3631ZM271.044 25.088C266.579 25.088 263.573 23.6435 262.597 23.1278C261.483 22.5392 261.022 22.0925 261.227 22.2696C261.659 22.6442 262.57 23.6082 263.614 24.9587L303.162 -5.63545C301.121 -8.27397 297.917 -12.0968 293.977 -15.5118C291.3 -17.832 282.9 -24.912 271.044 -24.912V25.088ZM262.376 23.2076C261.033 21.1237 260.334 19.0939 259.99 17.5152C259.672 16.0549 259.674 15.0531 259.674 14.9471C259.674 14.8711 259.676 14.9103 259.665 15.1431C259.652 15.3983 259.633 15.6861 259.598 16.223C259.542 17.0933 259.417 18.8899 259.417 20.8309H309.417C309.417 20.8582 309.416 20.7851 309.427 20.5477C309.44 20.2906 309.458 19.9966 309.492 19.4802C309.545 18.6722 309.674 16.8587 309.674 14.9471C309.674 11.0422 309.217 3.58796 304.4 -3.88429L262.376 23.2076ZM259.464 19.2989C258.951 27.6542 258.437 35.8133 257.923 43.9936C257.409 52.1684 256.893 60.3643 256.378 68.7628L306.284 71.8269C306.797 63.4716 307.31 55.3125 307.824 47.1322C308.339 38.9574 308.854 30.7615 309.37 22.363L259.464 19.2989ZM256.37 68.8956C255.452 85.2683 253.245 106.176 253.245 125.343H303.245C303.245 107.811 305.152 92.0206 306.292 71.6941L256.37 68.8956ZM253.259 124.496C251.63 172.501 291.757 196.889 323.724 209.285L341.802 162.668C312.05 151.13 302.802 138.819 303.23 126.191L253.259 124.496ZM324.142 209.443C346.538 217.671 371.971 222.47 400.084 219.626L395.052 169.88C375.847 171.822 358.077 168.643 341.384 162.51L324.142 209.443ZM400.321 219.601C404.88 219.095 410.003 219.287 416.593 220.005C419.896 220.364 423.263 220.817 427.105 221.329C430.834 221.825 434.962 222.37 439.228 222.811L444.371 173.076C440.923 172.72 437.464 172.267 433.704 171.766C430.055 171.281 426.029 170.737 422.003 170.298C413.935 169.42 404.656 168.814 394.815 169.905L400.321 219.601ZM437.968 222.648C439.306 222.856 440.302 223.012 441.22 223.176C442.122 223.337 442.673 223.46 443 223.544C443.339 223.632 443.183 223.615 442.719 223.418C442.26 223.222 441.173 222.714 439.851 221.688L470.494 182.178C464.998 177.916 459.103 176.063 455.515 175.136C451.776 174.169 447.921 173.594 445.632 173.239L437.968 222.648ZM437.77 219.882C438.588 220.675 439.342 221.436 440.002 222.15C440.679 222.882 441.118 223.414 441.364 223.741C441.661 224.135 441.404 223.87 440.993 223.008C440.77 222.541 440.41 221.704 440.091 220.541C439.773 219.383 439.43 217.656 439.43 215.496H489.43C489.43 209.386 487.546 204.471 486.131 201.5C484.628 198.346 482.827 195.686 481.324 193.687C478.339 189.719 474.914 186.252 472.574 183.983L437.77 219.882ZM439.43 215.496C439.43 211.368 440.981 206.571 444.544 202.738C447.594 199.457 450.715 198.392 451.626 198.121C452.636 197.819 452.96 197.89 452.224 197.917C451.593 197.94 450.626 197.916 449.355 197.792L444.531 247.559C449.536 248.044 457.833 248.446 465.919 246.034C470.173 244.765 476.123 242.205 481.166 236.78C486.722 230.803 489.43 223.213 489.43 215.496H439.43ZM448.432 197.72C435.082 196.924 423.387 196.161 410.816 194.661L404.892 244.308C419.067 246 432.059 246.832 445.454 247.631L448.432 197.72ZM410.267 194.601C380.873 191.752 354.625 197.57 331.12 204.199L344.692 252.322C366.448 246.186 385.461 242.431 405.442 244.368L410.267 194.601ZM330.499 204.383C316.958 208.584 301.197 217.429 291.866 230.456L332.514 259.572C333.469 258.239 338.282 254.319 345.314 252.138L330.499 204.383ZM292.994 228.999C282.441 241.648 267.667 258.857 260.742 279.265L308.091 295.331C311.453 285.422 319.309 275.506 331.387 261.03L292.994 228.999ZM260.832 279.005C248.251 314.783 239.248 353.337 229.566 386.376L277.548 400.436C288.44 363.268 295.894 330.02 308.001 295.591L260.832 279.005ZM229.524 386.52C228.721 389.325 228.176 391.926 227.781 393.915C227.32 396.239 227.142 397.279 226.832 398.681C226.313 401.029 226.075 401.066 226.373 400.603L268.397 427.695C272.811 420.85 274.63 414.105 275.654 409.472C277.014 403.318 276.774 403.142 277.59 400.292L229.524 386.52ZM225.166 402.69C226.284 400.523 227.396 399.458 227.494 399.362C227.737 399.123 227.801 399.101 227.71 399.161C227.606 399.23 227.766 399.101 228.314 398.883C228.608 398.766 229.179 398.558 230.007 398.365C230.797 398.181 232.182 397.925 234.013 397.925V447.925C243.545 447.925 251.463 443.389 255.231 440.905C259.367 438.179 265.74 433.101 269.604 425.608L225.166 402.69ZM234.013 397.925C238.069 397.925 240.631 399.125 241.094 399.341C241.907 399.722 242.367 400.059 242.649 400.29C242.887 400.484 243.641 401.124 244.544 402.448C245.177 403.377 247.698 407.244 247.698 413.351H197.698C197.698 421.453 201.119 427.514 203.231 430.612C205.612 434.105 208.424 436.889 210.976 438.978C213.572 441.104 216.603 443.087 219.924 444.639C222.895 446.027 227.899 447.925 234.013 447.925V397.925ZM247.555 410.681C247.222 407.584 247.183 403.932 247.304 399.236C247.408 395.19 247.698 388.99 247.698 383.833H197.698C197.698 388.249 197.473 392.022 197.32 397.948C197.184 403.225 197.145 409.545 197.841 416.022L247.555 410.681Z" fill="#81ADC8" mask="url(#path-3-inside-1_0_1)"/>
</svg>
