<svg width="291" height="406" viewBox="0 0 291 406" fill="none" xmlns="http://www.w3.org/2000/svg">
<path d="M-4.83773 57.5542C-4.83773 89.4373 7.49226 143.199 -39.0679 201.316C-84.5457 258.083 -21.9805 78.3291 40.8546 67.2034C114.305 54.198 -12.2788 355.331 -18.8058 294.047C-22.4574 259.761 83.7868 79.7998 113.672 109.685C151.689 147.702 52.0005 364.854 28.7229 361.282C-12.3421 354.982 134.528 105.198 176.202 126.711C225.895 152.364 143.987 323.554 105.98 332.736C75.5743 340.082 188.978 174.179 264.865 212.149" stroke="black" stroke-width="5.48455" stroke-linecap="round"/>
<path d="M270.003 198.807C270.744 197.481 272.772 198.165 272.558 199.669L272.163 202.441C272.034 203.343 272.806 204.117 273.709 203.992L284.482 202.498C285.935 202.297 286.647 204.211 285.415 205.008L277.409 210.184C276.481 210.784 276.608 212.181 277.631 212.603L283.08 214.853C284.333 215.37 284.156 217.197 282.827 217.464L279.26 218.181C278.455 218.343 277.971 219.172 278.228 219.953L279.24 223.034C279.627 224.211 278.377 225.257 277.287 224.669L272.937 222.324C271.821 221.722 270.557 222.828 271.003 224.014L273.396 230.366C273.915 231.744 272.192 232.86 271.147 231.823L264.385 225.116C263.949 224.684 263.279 224.594 262.744 224.896L255.121 229.209C253.851 229.928 252.486 228.428 253.322 227.231L257.811 220.796C258.222 220.207 258.109 219.401 257.552 218.948L249.725 212.576C248.724 211.762 249.3 210.142 250.59 210.142H256.621C257.302 210.142 257.88 209.641 257.978 208.966L258.923 202.411C259.128 200.993 261.096 200.799 261.573 202.15L263.105 206.485C263.498 207.598 265.019 207.727 265.595 206.697L270.003 198.807Z" fill="#CD4631"/>
</svg>

